<svg xmlns="http://www.w3.org/2000/svg" width="68" height="82" viewBox="0 0 68 82"><g fill="#315F9B" fill-rule="evenodd"><path fill-opacity=".1" d="M33.42 3.46v76.18s-8.62-2.95-12.4-5.6a43.73 43.73 0 0 1-9.89-9.59 46.22 46.22 0 0 1-6.48-12.38 42.47 42.47 0 0 1-2.36-14.01V17.27l31.13-13.8z"/><path d="M33.35 3.99l-.07-.03v.06L3.4 17.48v20.36c0 4.72.77 9.29 2.32 13.71a45.2 45.2 0 0 0 6.37 12.13c2.76 3.66 6 6.79 9.72 9.39 3.43 2.39 10.4 5.03 11.48 5.43v.05l.07-.02.07.02v-.05c1.08-.4 8.05-3.04 11.48-5.43a42.91 42.91 0 0 0 9.72-9.39A45.2 45.2 0 0 0 61 51.55c1.54-4.42 2.3-9 2.3-13.71V17.48L33.43 4.02v-.06l-.07.03zm.21-3.96l.08-.03v.07l33.49 14.8v22.37c0 5.19-.85 10.21-2.54 15.08a49.69 49.69 0 0 1-7.01 13.33 47.18 47.18 0 0 1-10.7 10.32c-3.77 2.64-12.01 5.55-13.24 5.98V82s-.03 0-.08-.03l-.07.03v-.05c-1.23-.43-9.48-3.34-13.25-5.98a47.18 47.18 0 0 1-10.7-10.32 49.69 49.69 0 0 1-7-13.33A45.55 45.55 0 0 1 0 37.24V14.86L33.49.06V0l.07.03z"/><path d="M48.9 33.33v3.79h-4.04c.12.84.18 1.5.18 1.99V41h3.85v3.88h-3.85v1.9c0 .42-.06 1.05-.18 1.89h4.03v3.88h-5.38a11.65 11.65 0 0 1-4.17 4.2 11.07 11.07 0 0 1-5.78 1.57c-2.09 0-4.02-.52-5.78-1.58a11.65 11.65 0 0 1-4.17-4.2h-5.38v-3.87h4.04a14.8 14.8 0 0 1-.18-1.9v-1.89h-3.86V41h3.86v-1.9c0-.48.06-1.14.18-1.98h-4.04v-3.79h5.38c.9-1.5 2.06-2.77 3.5-3.79v-5.86h3.76v4.15a13.6 13.6 0 0 1 5.38 0v-4.15h3.77v5.86a12.41 12.41 0 0 1 3.5 3.8h5.37z"/></g></svg>